<?xml version="1.0" encoding="utf-8" standalone="no"?>
<!DOCTYPE svg PUBLIC "-//W3C//DTD SVG 1.1//EN"
  "http://www.w3.org/Graphics/SVG/1.1/DTD/svg11.dtd">
<svg xmlns:xlink="http://www.w3.org/1999/xlink" width="564.667969pt" height="312.401016pt" viewBox="0 0 564.667969 312.401016" xmlns="http://www.w3.org/2000/svg" version="1.1">
 <metadata>
  <rdf:RDF xmlns:dc="http://purl.org/dc/elements/1.1/" xmlns:cc="http://creativecommons.org/ns#" xmlns:rdf="http://www.w3.org/1999/02/22-rdf-syntax-ns#">
   <cc:Work>
    <dc:type rdf:resource="http://purl.org/dc/dcmitype/StillImage"/>
    <dc:date>2025-08-25T15:38:56.337980</dc:date>
    <dc:format>image/svg+xml</dc:format>
    <dc:creator>
     <cc:Agent>
      <dc:title>Matplotlib v3.9.2, https://matplotlib.org/</dc:title>
     </cc:Agent>
    </dc:creator>
   </cc:Work>
  </rdf:RDF>
 </metadata>
 <defs>
  <style type="text/css">*{stroke-linejoin: round; stroke-linecap: butt}</style>
 </defs>
 <g id="figure_1">
  <g id="patch_1">
   <path d="M 0 312.401016 
L 564.667969 312.401016 
L 564.667969 0 
L 0 0 
L 0 312.401016 
z
" style="fill: none; opacity: 0"/>
  </g>
  <g id="axes_1">
   <g id="patch_2">
    <path d="M 43.908438 270.666797 
L 551.350937 270.666797 
L 551.350937 11.136797 
L 43.908438 11.136797 
z
" style="fill: #eeeeee"/>
   </g>
   <g id="matplotlib.axis_1">
    <g id="xtick_1">
     <g id="line2d_1">
      <path d="M 43.908438 270.666797 
L 43.908438 11.136797 
" clip-path="url(#p2c7fd863d2)" style="fill: none; stroke: #ffffff; stroke-linecap: round"/>
     </g>
     <g id="text_1">
      <text style="fill: #666666; font: 11px 'Arial', 'DejaVu Sans', 'Liberation Sans', 'Bitstream Vera Sans', sans-serif; text-anchor: middle" x="43.908438" y="288.040391" transform="rotate(-0 43.908438 288.040391)">0</text>
     </g>
    </g>
    <g id="xtick_2">
     <g id="line2d_2">
      <path d="M 145.396938 270.666797 
L 145.396938 11.136797 
" clip-path="url(#p2c7fd863d2)" style="fill: none; stroke: #ffffff; stroke-linecap: round"/>
     </g>
     <g id="text_2">
      <text style="fill: #666666; font: 11px 'Arial', 'DejaVu Sans', 'Liberation Sans', 'Bitstream Vera Sans', sans-serif; text-anchor: middle" x="145.396938" y="288.040391" transform="rotate(-0 145.396938 288.040391)">2</text>
     </g>
    </g>
    <g id="xtick_3">
     <g id="line2d_3">
      <path d="M 246.885438 270.666797 
L 246.885438 11.136797 
" clip-path="url(#p2c7fd863d2)" style="fill: none; stroke: #ffffff; stroke-linecap: round"/>
     </g>
     <g id="text_3">
      <text style="fill: #666666; font: 11px 'Arial', 'DejaVu Sans', 'Liberation Sans', 'Bitstream Vera Sans', sans-serif; text-anchor: middle" x="246.885438" y="288.040391" transform="rotate(-0 246.885438 288.040391)">4</text>
     </g>
    </g>
    <g id="xtick_4">
     <g id="line2d_4">
      <path d="M 348.373938 270.666797 
L 348.373938 11.136797 
" clip-path="url(#p2c7fd863d2)" style="fill: none; stroke: #ffffff; stroke-linecap: round"/>
     </g>
     <g id="text_4">
      <text style="fill: #666666; font: 11px 'Arial', 'DejaVu Sans', 'Liberation Sans', 'Bitstream Vera Sans', sans-serif; text-anchor: middle" x="348.373938" y="288.040391" transform="rotate(-0 348.373938 288.040391)">6</text>
     </g>
    </g>
    <g id="xtick_5">
     <g id="line2d_5">
      <path d="M 449.862437 270.666797 
L 449.862437 11.136797 
" clip-path="url(#p2c7fd863d2)" style="fill: none; stroke: #ffffff; stroke-linecap: round"/>
     </g>
     <g id="text_5">
      <text style="fill: #666666; font: 11px 'Arial', 'DejaVu Sans', 'Liberation Sans', 'Bitstream Vera Sans', sans-serif; text-anchor: middle" x="449.862437" y="288.040391" transform="rotate(-0 449.862437 288.040391)">8</text>
     </g>
    </g>
    <g id="xtick_6">
     <g id="line2d_6">
      <path d="M 551.350937 270.666797 
L 551.350937 11.136797 
" clip-path="url(#p2c7fd863d2)" style="fill: none; stroke: #ffffff; stroke-linecap: round"/>
     </g>
     <g id="text_6">
      <text style="fill: #666666; font: 11px 'Arial', 'DejaVu Sans', 'Liberation Sans', 'Bitstream Vera Sans', sans-serif; text-anchor: middle" x="551.350937" y="288.040391" transform="rotate(-0 551.350937 288.040391)">10</text>
     </g>
    </g>
    <g id="text_7">
     <text style="fill: #666666; font: 12px 'Arial', 'DejaVu Sans', 'Liberation Sans', 'Bitstream Vera Sans', sans-serif; text-anchor: middle" x="297.629687" y="302.816016" transform="rotate(-0 297.629687 302.816016)">x</text>
    </g>
   </g>
   <g id="matplotlib.axis_2">
    <g id="ytick_1">
     <g id="line2d_7">
      <path d="M 43.908438 270.666797 
L 551.350937 270.666797 
" clip-path="url(#p2c7fd863d2)" style="fill: none; stroke: #ffffff; stroke-linecap: round"/>
     </g>
     <g id="text_8">
      <text style="fill: #666666; font: 11px 'Arial', 'DejaVu Sans', 'Liberation Sans', 'Bitstream Vera Sans', sans-serif; text-anchor: end" x="34.408438" y="274.603594" transform="rotate(-0 34.408438 274.603594)">0</text>
     </g>
    </g>
    <g id="ytick_2">
     <g id="line2d_8">
      <path d="M 43.908438 227.411797 
L 551.350937 227.411797 
" clip-path="url(#p2c7fd863d2)" style="fill: none; stroke: #ffffff; stroke-linecap: round"/>
     </g>
     <g id="text_9">
      <text style="fill: #666666; font: 11px 'Arial', 'DejaVu Sans', 'Liberation Sans', 'Bitstream Vera Sans', sans-serif; text-anchor: end" x="34.408438" y="231.348594" transform="rotate(-0 34.408438 231.348594)">5</text>
     </g>
    </g>
    <g id="ytick_3">
     <g id="line2d_9">
      <path d="M 43.908438 184.156797 
L 551.350937 184.156797 
" clip-path="url(#p2c7fd863d2)" style="fill: none; stroke: #ffffff; stroke-linecap: round"/>
     </g>
     <g id="text_10">
      <text style="fill: #666666; font: 11px 'Arial', 'DejaVu Sans', 'Liberation Sans', 'Bitstream Vera Sans', sans-serif; text-anchor: end" x="34.408438" y="188.093594" transform="rotate(-0 34.408438 188.093594)">10</text>
     </g>
    </g>
    <g id="ytick_4">
     <g id="line2d_10">
      <path d="M 43.908438 140.901797 
L 551.350937 140.901797 
" clip-path="url(#p2c7fd863d2)" style="fill: none; stroke: #ffffff; stroke-linecap: round"/>
     </g>
     <g id="text_11">
      <text style="fill: #666666; font: 11px 'Arial', 'DejaVu Sans', 'Liberation Sans', 'Bitstream Vera Sans', sans-serif; text-anchor: end" x="34.408438" y="144.838594" transform="rotate(-0 34.408438 144.838594)">15</text>
     </g>
    </g>
    <g id="ytick_5">
     <g id="line2d_11">
      <path d="M 43.908438 97.646797 
L 551.350937 97.646797 
" clip-path="url(#p2c7fd863d2)" style="fill: none; stroke: #ffffff; stroke-linecap: round"/>
     </g>
     <g id="text_12">
      <text style="fill: #666666; font: 11px 'Arial', 'DejaVu Sans', 'Liberation Sans', 'Bitstream Vera Sans', sans-serif; text-anchor: end" x="34.408438" y="101.583594" transform="rotate(-0 34.408438 101.583594)">20</text>
     </g>
    </g>
    <g id="ytick_6">
     <g id="line2d_12">
      <path d="M 43.908438 54.391797 
L 551.350937 54.391797 
" clip-path="url(#p2c7fd863d2)" style="fill: none; stroke: #ffffff; stroke-linecap: round"/>
     </g>
     <g id="text_13">
      <text style="fill: #666666; font: 11px 'Arial', 'DejaVu Sans', 'Liberation Sans', 'Bitstream Vera Sans', sans-serif; text-anchor: end" x="34.408438" y="58.328594" transform="rotate(-0 34.408438 58.328594)">25</text>
     </g>
    </g>
    <g id="ytick_7">
     <g id="line2d_13">
      <path d="M 43.908438 11.136797 
L 551.350937 11.136797 
" clip-path="url(#p2c7fd863d2)" style="fill: none; stroke: #ffffff; stroke-linecap: round"/>
     </g>
     <g id="text_14">
      <text style="fill: #666666; font: 11px 'Arial', 'DejaVu Sans', 'Liberation Sans', 'Bitstream Vera Sans', sans-serif; text-anchor: end" x="34.408438" y="15.073594" transform="rotate(-0 34.408438 15.073594)">30</text>
     </g>
    </g>
    <g id="text_15">
     <text style="fill: #666666; font: 12px 'Arial', 'DejaVu Sans', 'Liberation Sans', 'Bitstream Vera Sans', sans-serif; text-anchor: middle" x="15.64875" y="140.901797" transform="rotate(-90 15.64875 140.901797)">y</text>
    </g>
   </g>
   <g id="line2d_14">
    <defs>
     <path id="m4d187eb3a2" d="M 0 2.5 
C 0.663008 2.5 1.29895 2.236584 1.767767 1.767767 
C 2.236584 1.29895 2.5 0.663008 2.5 0 
C 2.5 -0.663008 2.236584 -1.29895 1.767767 -1.767767 
C 1.29895 -2.236584 0.663008 -2.5 0 -2.5 
C -0.663008 -2.5 -1.29895 -2.236584 -1.767767 -1.767767 
C -2.236584 -1.29895 -2.5 -0.663008 -2.5 0 
C -2.5 0.663008 -2.236584 1.29895 -1.767767 1.767767 
C -1.29895 2.236584 -0.663008 2.5 0 2.5 
z
" style="stroke: #4c72b0"/>
    </defs>
    <g clip-path="url(#p2c7fd863d2)">
     <use xlink:href="#m4d187eb3a2" x="43.908438" y="249.156013" style="fill: #4c72b0; stroke: #4c72b0"/>
     <use xlink:href="#m4d187eb3a2" x="56.919784" y="248.181731" style="fill: #4c72b0; stroke: #4c72b0"/>
     <use xlink:href="#m4d187eb3a2" x="69.93113" y="264.657625" style="fill: #4c72b0; stroke: #4c72b0"/>
     <use xlink:href="#m4d187eb3a2" x="82.942476" y="244.689711" style="fill: #4c72b0; stroke: #4c72b0"/>
     <use xlink:href="#m4d187eb3a2" x="95.953822" y="242.251258" style="fill: #4c72b0; stroke: #4c72b0"/>
     <use xlink:href="#m4d187eb3a2" x="108.965168" y="236.049995" style="fill: #4c72b0; stroke: #4c72b0"/>
     <use xlink:href="#m4d187eb3a2" x="121.976514" y="220.319875" style="fill: #4c72b0; stroke: #4c72b0"/>
     <use xlink:href="#m4d187eb3a2" x="134.987861" y="227.092275" style="fill: #4c72b0; stroke: #4c72b0"/>
     <use xlink:href="#m4d187eb3a2" x="147.999207" y="214.777952" style="fill: #4c72b0; stroke: #4c72b0"/>
     <use xlink:href="#m4d187eb3a2" x="161.010553" y="220.918852" style="fill: #4c72b0; stroke: #4c72b0"/>
     <use xlink:href="#m4d187eb3a2" x="174.021899" y="212.64935" style="fill: #4c72b0; stroke: #4c72b0"/>
     <use xlink:href="#m4d187eb3a2" x="187.033245" y="202.292735" style="fill: #4c72b0; stroke: #4c72b0"/>
     <use xlink:href="#m4d187eb3a2" x="200.044591" y="233.990584" style="fill: #4c72b0; stroke: #4c72b0"/>
     <use xlink:href="#m4d187eb3a2" x="213.055937" y="209.873415" style="fill: #4c72b0; stroke: #4c72b0"/>
     <use xlink:href="#m4d187eb3a2" x="226.067284" y="208.044441" style="fill: #4c72b0; stroke: #4c72b0"/>
     <use xlink:href="#m4d187eb3a2" x="239.07863" y="206.523508" style="fill: #4c72b0; stroke: #4c72b0"/>
     <use xlink:href="#m4d187eb3a2" x="252.089976" y="195.793744" style="fill: #4c72b0; stroke: #4c72b0"/>
     <use xlink:href="#m4d187eb3a2" x="265.101322" y="160.731348" style="fill: #4c72b0; stroke: #4c72b0"/>
     <use xlink:href="#m4d187eb3a2" x="278.112668" y="197.141022" style="fill: #4c72b0; stroke: #4c72b0"/>
     <use xlink:href="#m4d187eb3a2" x="291.124014" y="160.97085" style="fill: #4c72b0; stroke: #4c72b0"/>
     <use xlink:href="#m4d187eb3a2" x="304.135361" y="202.404605" style="fill: #4c72b0; stroke: #4c72b0"/>
     <use xlink:href="#m4d187eb3a2" x="317.146707" y="174.645362" style="fill: #4c72b0; stroke: #4c72b0"/>
     <use xlink:href="#m4d187eb3a2" x="330.158053" y="161.598818" style="fill: #4c72b0; stroke: #4c72b0"/>
     <use xlink:href="#m4d187eb3a2" x="343.169399" y="149.835542" style="fill: #4c72b0; stroke: #4c72b0"/>
     <use xlink:href="#m4d187eb3a2" x="356.180745" y="143.236308" style="fill: #4c72b0; stroke: #4c72b0"/>
     <use xlink:href="#m4d187eb3a2" x="369.192091" y="137.379047" style="fill: #4c72b0; stroke: #4c72b0"/>
     <use xlink:href="#m4d187eb3a2" x="382.203437" y="152.702771" style="fill: #4c72b0; stroke: #4c72b0"/>
     <use xlink:href="#m4d187eb3a2" x="395.214784" y="150.232331" style="fill: #4c72b0; stroke: #4c72b0"/>
     <use xlink:href="#m4d187eb3a2" x="408.22613" y="122.951611" style="fill: #4c72b0; stroke: #4c72b0"/>
     <use xlink:href="#m4d187eb3a2" x="421.237476" y="136.669847" style="fill: #4c72b0; stroke: #4c72b0"/>
     <use xlink:href="#m4d187eb3a2" x="434.248822" y="150.995414" style="fill: #4c72b0; stroke: #4c72b0"/>
     <use xlink:href="#m4d187eb3a2" x="447.260168" y="144.095214" style="fill: #4c72b0; stroke: #4c72b0"/>
     <use xlink:href="#m4d187eb3a2" x="460.271514" y="135.959032" style="fill: #4c72b0; stroke: #4c72b0"/>
     <use xlink:href="#m4d187eb3a2" x="473.282861" y="107.012383" style="fill: #4c72b0; stroke: #4c72b0"/>
     <use xlink:href="#m4d187eb3a2" x="486.294207" y="108.713598" style="fill: #4c72b0; stroke: #4c72b0"/>
     <use xlink:href="#m4d187eb3a2" x="499.305553" y="94.79466" style="fill: #4c72b0; stroke: #4c72b0"/>
     <use xlink:href="#m4d187eb3a2" x="512.316899" y="109.697353" style="fill: #4c72b0; stroke: #4c72b0"/>
     <use xlink:href="#m4d187eb3a2" x="525.328245" y="95.125564" style="fill: #4c72b0; stroke: #4c72b0"/>
     <use xlink:href="#m4d187eb3a2" x="538.339591" y="82.608242" style="fill: #4c72b0; stroke: #4c72b0"/>
     <use xlink:href="#m4d187eb3a2" x="551.350937" y="94.348111" style="fill: #4c72b0; stroke: #4c72b0"/>
    </g>
   </g>
   <g id="line2d_15">
    <path d="M 43.908438 236.062797 
L 56.919784 231.626387 
L 69.93113 227.189976 
L 82.942476 222.753566 
L 95.953822 218.317156 
L 108.965168 213.880746 
L 121.976514 209.444335 
L 134.987861 205.007925 
L 147.999207 200.571515 
L 161.010553 196.135105 
L 174.021899 191.698694 
L 187.033245 187.262284 
L 200.044591 182.825874 
L 213.055937 178.389464 
L 226.067284 173.953053 
L 239.07863 169.516643 
L 252.089976 165.080233 
L 265.101322 160.643823 
L 278.112668 156.207412 
L 291.124014 151.771002 
L 304.135361 147.334592 
L 317.146707 142.898181 
L 330.158053 138.461771 
L 343.169399 134.025361 
L 356.180745 129.588951 
L 369.192091 125.15254 
L 382.203437 120.71613 
L 395.214784 116.27972 
L 408.22613 111.84331 
L 421.237476 107.406899 
L 434.248822 102.970489 
L 447.260168 98.534079 
L 460.271514 94.097669 
L 473.282861 89.661258 
L 486.294207 85.224848 
L 499.305553 80.788438 
L 512.316899 76.352028 
L 525.328245 71.915617 
L 538.339591 67.479207 
L 551.350937 63.042797 
" clip-path="url(#p2c7fd863d2)" style="fill: none; stroke: #264653; stroke-opacity: 0.6; stroke-width: 2; stroke-linecap: round"/>
   </g>
   <g id="line2d_16">
    <path d="M 43.908438 253.364797 
L 56.919784 251.146592 
L 69.93113 248.928387 
L 82.942476 246.710181 
L 95.953822 244.491976 
L 108.965168 242.273771 
L 121.976514 240.055566 
L 134.987861 237.837361 
L 147.999207 235.619156 
L 161.010553 233.400951 
L 174.021899 231.182746 
L 187.033245 228.96454 
L 200.044591 226.746335 
L 213.055937 224.52813 
L 226.067284 222.309925 
L 239.07863 220.09172 
L 252.089976 217.873515 
L 265.101322 215.65531 
L 278.112668 213.437105 
L 291.124014 211.218899 
L 304.135361 209.000694 
L 317.146707 206.782489 
L 330.158053 204.564284 
L 343.169399 202.346079 
L 356.180745 200.127874 
L 369.192091 197.909669 
L 382.203437 195.691464 
L 395.214784 193.473258 
L 408.22613 191.255053 
L 421.237476 189.036848 
L 434.248822 186.818643 
L 447.260168 184.600438 
L 460.271514 182.382233 
L 473.282861 180.164028 
L 486.294207 177.945823 
L 499.305553 175.727617 
L 512.316899 173.509412 
L 525.328245 171.291207 
L 538.339591 169.073002 
L 551.350937 166.854797 
" clip-path="url(#p2c7fd863d2)" style="fill: none; stroke: #2a9d8f; stroke-opacity: 0.6; stroke-width: 2; stroke-linecap: round"/>
   </g>
   <g id="line2d_17">
    <path d="M 43.908438 266.341297 
L 56.919784 259.686681 
L 69.93113 253.032066 
L 82.942476 246.377451 
L 95.953822 239.722835 
L 108.965168 233.06822 
L 121.976514 226.413605 
L 134.987861 219.758989 
L 147.999207 213.104374 
L 161.010553 206.449758 
L 174.021899 199.795143 
L 187.033245 193.140528 
L 200.044591 186.485912 
L 213.055937 179.831297 
L 226.067284 173.176681 
L 239.07863 166.522066 
L 252.089976 159.867451 
L 265.101322 153.212835 
L 278.112668 146.55822 
L 291.124014 139.903605 
L 304.135361 133.248989 
L 317.146707 126.594374 
L 330.158053 119.939758 
L 343.169399 113.285143 
L 356.180745 106.630528 
L 369.192091 99.975912 
L 382.203437 93.321297 
L 395.214784 86.666681 
L 408.22613 80.012066 
L 421.237476 73.357451 
L 434.248822 66.702835 
L 447.260168 60.04822 
L 460.271514 53.393605 
L 473.282861 46.738989 
L 486.294207 40.084374 
L 499.305553 33.429758 
L 512.316899 26.775143 
L 525.328245 20.120528 
L 538.339591 13.465912 
L 551.350937 6.811297 
" clip-path="url(#p2c7fd863d2)" style="fill: none; stroke: #e9c46a; stroke-opacity: 0.6; stroke-width: 2; stroke-linecap: round"/>
   </g>
   <g id="patch_3">
    <path d="M 43.908438 270.666797 
L 43.908438 11.136797 
" style="fill: none; stroke: #666666; stroke-width: 1.25; stroke-linejoin: miter; stroke-linecap: square"/>
   </g>
   <g id="patch_4">
    <path d="M 551.350937 270.666797 
L 551.350937 11.136797 
" style="fill: none; stroke: #666666; stroke-width: 1.25; stroke-linejoin: miter; stroke-linecap: square"/>
   </g>
   <g id="patch_5">
    <path d="M 43.908438 270.666797 
L 551.350937 270.666797 
" style="fill: none; stroke: #666666; stroke-width: 1.25; stroke-linejoin: miter; stroke-linecap: square"/>
   </g>
   <g id="patch_6">
    <path d="M 43.908438 11.136797 
L 551.350937 11.136797 
" style="fill: none; stroke: #666666; stroke-width: 1.25; stroke-linejoin: miter; stroke-linecap: square"/>
   </g>
   <g id="legend_1">
    <g id="patch_7">
     <path d="M 51.608438 82.176172 
L 173.024375 82.176172 
Q 175.224375 82.176172 175.224375 79.976172 
L 175.224375 18.836797 
Q 175.224375 16.636797 173.024375 16.636797 
L 51.608438 16.636797 
Q 49.408438 16.636797 49.408438 18.836797 
L 49.408438 79.976172 
Q 49.408438 82.176172 51.608438 82.176172 
z
" style="fill: #eaeaf2; opacity: 0.8; stroke: #cccccc; stroke-linejoin: miter"/>
    </g>
    <g id="line2d_18">
     <g>
      <use xlink:href="#m4d187eb3a2" x="64.808437" y="25.060391" style="fill: #4c72b0; stroke: #4c72b0"/>
     </g>
    </g>
    <g id="text_16">
     <text style="fill: #262626; font: 11px 'Arial', 'DejaVu Sans', 'Liberation Sans', 'Bitstream Vera Sans', sans-serif; text-anchor: start" x="84.608438" y="28.910391" transform="rotate(-0 84.608438 28.910391)">Données bruitées</text>
    </g>
    <g id="line2d_19">
     <path d="M 53.808438 40.620234 
L 64.808437 40.620234 
L 75.808437 40.620234 
" style="fill: none; stroke: #264653; stroke-opacity: 0.6; stroke-width: 2; stroke-linecap: round"/>
    </g>
    <g id="text_17">
     <text style="fill: #262626; font: 11px 'Arial', 'DejaVu Sans', 'Liberation Sans', 'Bitstream Vera Sans', sans-serif; text-anchor: start" x="84.608438" y="44.470234" transform="rotate(-0 84.608438 44.470234)">a=2.0, b=4.0</text>
    </g>
    <g id="line2d_20">
     <path d="M 53.808438 56.180078 
L 64.808437 56.180078 
L 75.808437 56.180078 
" style="fill: none; stroke: #2a9d8f; stroke-opacity: 0.6; stroke-width: 2; stroke-linecap: round"/>
    </g>
    <g id="text_18">
     <text style="fill: #262626; font: 11px 'Arial', 'DejaVu Sans', 'Liberation Sans', 'Bitstream Vera Sans', sans-serif; text-anchor: start" x="84.608438" y="60.030078" transform="rotate(-0 84.608438 60.030078)">a=1.0, b=2.0</text>
    </g>
    <g id="line2d_21">
     <path d="M 53.808438 71.739922 
L 64.808437 71.739922 
L 75.808437 71.739922 
" style="fill: none; stroke: #e9c46a; stroke-opacity: 0.6; stroke-width: 2; stroke-linecap: round"/>
    </g>
    <g id="text_19">
     <text style="fill: #262626; font: 11px 'Arial', 'DejaVu Sans', 'Liberation Sans', 'Bitstream Vera Sans', sans-serif; text-anchor: start" x="84.608438" y="75.589922" transform="rotate(-0 84.608438 75.589922)">a=3.0, b=0.5</text>
    </g>
   </g>
  </g>
 </g>
 <defs>
  <clipPath id="p2c7fd863d2">
   <rect x="43.908438" y="11.136797" width="507.4425" height="259.53"/>
  </clipPath>
 </defs>
</svg>
