<?xml version="1.0" encoding="UTF-8" standalone="no"?>
<!DOCTYPE svg PUBLIC "-//W3C//DTD SVG 1.1//EN"
 "http://www.w3.org/Graphics/SVG/1.1/DTD/svg11.dtd">
<!-- Generated by graphviz version 13.1.2 (20250808.2320)
 -->
<!-- Title: communication_emetteur_detail Pages: 1 -->
<svg width="206pt" height="570pt"
 viewBox="0.00 0.00 206.00 570.00" xmlns="http://www.w3.org/2000/svg" xmlns:xlink="http://www.w3.org/1999/xlink">
<g id="graph0" class="graph" transform="scale(1 1) rotate(0) translate(4 566)">
<title>communication_emetteur_detail</title>
<polygon fill="white" stroke="none" points="-4,4 -4,-566 202,-566 202,4 -4,4"/>
<g id="clust1" class="cluster">
<title>cluster_emetteur</title>
<path fill="none" stroke="black" d="M20,-114.8C20,-114.8 178,-114.8 178,-114.8 184,-114.8 190,-120.8 190,-126.8 190,-126.8 190,-437.2 190,-437.2 190,-443.2 184,-449.2 178,-449.2 178,-449.2 20,-449.2 20,-449.2 14,-449.2 8,-443.2 8,-437.2 8,-437.2 8,-126.8 8,-126.8 8,-120.8 14,-114.8 20,-114.8"/>
<text xml:space="preserve" text-anchor="middle" x="99" y="-431.9" font-family="Inter" font-size="14.00">emetteur</text>
</g>
<!-- source -->
<g id="node1" class="node">
<title>source</title>
<path fill="#f7f7f8" stroke="black" d="M166.2,-562C166.2,-562 31.8,-562 31.8,-562 25.8,-562 19.8,-556 19.8,-550 19.8,-550 19.8,-509.2 19.8,-509.2 19.8,-503.2 25.8,-497.2 31.8,-497.2 31.8,-497.2 166.2,-497.2 166.2,-497.2 172.2,-497.2 178.2,-503.2 178.2,-509.2 178.2,-509.2 178.2,-550 178.2,-550 178.2,-556 172.2,-562 166.2,-562"/>
<text xml:space="preserve" text-anchor="middle" x="99" y="-534.3" font-family="Inter" font-size="14.00">Source</text>
<text xml:space="preserve" text-anchor="middle" x="99" y="-516.3" font-family="Inter" font-size="14.00">d&#39;information</text>
</g>
<!-- gen -->
<g id="node2" class="node">
<title>gen</title>
<path fill="#f7f7f8" stroke="black" d="M166.2,-411.2C166.2,-411.2 31.8,-411.2 31.8,-411.2 25.8,-411.2 19.8,-405.2 19.8,-399.2 19.8,-399.2 19.8,-358.4 19.8,-358.4 19.8,-352.4 25.8,-346.4 31.8,-346.4 31.8,-346.4 166.2,-346.4 166.2,-346.4 172.2,-346.4 178.2,-352.4 178.2,-358.4 178.2,-358.4 178.2,-399.2 178.2,-399.2 178.2,-405.2 172.2,-411.2 166.2,-411.2"/>
<text xml:space="preserve" text-anchor="middle" x="99" y="-374.5" font-family="Inter" font-size="14.00">Génération</text>
</g>
<!-- source&#45;&gt;gen -->
<g id="edge3" class="edge">
<title>source&#45;&gt;gen</title>
<path fill="none" stroke="black" d="M99,-496.88C99,-496.88 99,-478.75 99,-460.45"/>
<polygon fill="black" stroke="black" points="102.5,-460.71 99,-450.71 95.5,-460.71 102.5,-460.71"/>
<text xml:space="preserve" text-anchor="middle" x="132.38" y="-461.9" font-family="Inter" font-size="14.00"> message </text>
</g>
<!-- trans -->
<g id="node3" class="node">
<title>trans</title>
<path fill="#f7f7f8" stroke="black" d="M166.2,-301.4C166.2,-301.4 31.8,-301.4 31.8,-301.4 25.8,-301.4 19.8,-295.4 19.8,-289.4 19.8,-289.4 19.8,-248.6 19.8,-248.6 19.8,-242.6 25.8,-236.6 31.8,-236.6 31.8,-236.6 166.2,-236.6 166.2,-236.6 172.2,-236.6 178.2,-242.6 178.2,-248.6 178.2,-248.6 178.2,-289.4 178.2,-289.4 178.2,-295.4 172.2,-301.4 166.2,-301.4"/>
<text xml:space="preserve" text-anchor="middle" x="99" y="-264.7" font-family="Inter" font-size="14.00">Traitement</text>
</g>
<!-- gen&#45;&gt;trans -->
<g id="edge1" class="edge">
<title>gen&#45;&gt;trans</title>
<path fill="none" stroke="black" d="M99,-346.15C99,-346.15 99,-313.22 99,-313.22"/>
<polygon fill="black" stroke="black" points="102.5,-313.22 99,-303.22 95.5,-313.22 102.5,-313.22"/>
</g>
<!-- store -->
<g id="node4" class="node">
<title>store</title>
<path fill="#f7f7f8" stroke="black" d="M166.2,-191.6C166.2,-191.6 31.8,-191.6 31.8,-191.6 25.8,-191.6 19.8,-185.6 19.8,-179.6 19.8,-179.6 19.8,-138.8 19.8,-138.8 19.8,-132.8 25.8,-126.8 31.8,-126.8 31.8,-126.8 166.2,-126.8 166.2,-126.8 172.2,-126.8 178.2,-132.8 178.2,-138.8 178.2,-138.8 178.2,-179.6 178.2,-179.6 178.2,-185.6 172.2,-191.6 166.2,-191.6"/>
<text xml:space="preserve" text-anchor="middle" x="99" y="-163.9" font-family="Inter" font-size="14.00">Stockage</text>
<text xml:space="preserve" text-anchor="middle" x="99" y="-145.9" font-family="Inter" font-size="14.00">(optionnel)</text>
</g>
<!-- trans&#45;&gt;store -->
<g id="edge2" class="edge">
<title>trans&#45;&gt;store</title>
<path fill="none" stroke="black" d="M99,-236.35C99,-236.35 99,-203.42 99,-203.42"/>
<polygon fill="black" stroke="black" points="102.5,-203.42 99,-193.42 95.5,-203.42 102.5,-203.42"/>
</g>
<!-- canal -->
<g id="node5" class="node">
<title>canal</title>
<path fill="#f7f7f8" stroke="black" d="M166.2,-64.8C166.2,-64.8 31.8,-64.8 31.8,-64.8 25.8,-64.8 19.8,-58.8 19.8,-52.8 19.8,-52.8 19.8,-12 19.8,-12 19.8,-6 25.8,0 31.8,0 31.8,0 166.2,0 166.2,0 172.2,0 178.2,-6 178.2,-12 178.2,-12 178.2,-52.8 178.2,-52.8 178.2,-58.8 172.2,-64.8 166.2,-64.8"/>
<text xml:space="preserve" text-anchor="middle" x="99" y="-28.1" font-family="Inter" font-size="14.00">canal</text>
</g>
<!-- store&#45;&gt;canal -->
<g id="edge4" class="edge">
<title>store&#45;&gt;canal</title>
<path fill="none" stroke="black" d="M99,-114.8C99,-100 99,-76.46 99,-76.46"/>
<polygon fill="black" stroke="black" points="102.5,-76.46 99,-66.46 95.5,-76.46 102.5,-76.46"/>
<text xml:space="preserve" text-anchor="middle" x="121.5" y="-91.5" font-family="Inter" font-size="14.00"> signal </text>
</g>
</g>
</svg>
