<?xml version="1.0" encoding="UTF-8" standalone="no"?>
<!DOCTYPE svg PUBLIC "-//W3C//DTD SVG 1.1//EN"
 "http://www.w3.org/Graphics/SVG/1.1/DTD/svg11.dtd">
<!-- Generated by graphviz version 13.1.2 (20250808.2320)
 -->
<!-- Title: communication Pages: 1 -->
<svg width="171pt" height="584pt"
 viewBox="0.00 0.00 171.00 584.00" xmlns="http://www.w3.org/2000/svg" xmlns:xlink="http://www.w3.org/1999/xlink">
<g id="graph0" class="graph" transform="scale(1 1) rotate(0) translate(4 580)">
<title>communication</title>
<polygon fill="white" stroke="none" points="-4,4 -4,-580 167.2,-580 167.2,4 -4,4"/>
<!-- source -->
<g id="node1" class="node">
<title>source</title>
<path fill="#f7f7f8" stroke="black" d="M146.4,-576C146.4,-576 12,-576 12,-576 6,-576 0,-570 0,-564 0,-564 0,-516 0,-516 0,-510 6,-504 12,-504 12,-504 146.4,-504 146.4,-504 152.4,-504 158.4,-510 158.4,-516 158.4,-516 158.4,-564 158.4,-564 158.4,-570 152.4,-576 146.4,-576"/>
<text xml:space="preserve" text-anchor="middle" x="79.2" y="-544.7" font-family="Inter" font-size="14.00">Source</text>
<text xml:space="preserve" text-anchor="middle" x="79.2" y="-526.7" font-family="Inter" font-size="14.00">d&#39;information</text>
</g>
<!-- encoder -->
<g id="node2" class="node">
<title>encoder</title>
<path fill="#f7f7f8" stroke="black" d="M146.4,-450C146.4,-450 12,-450 12,-450 6,-450 0,-444 0,-438 0,-438 0,-390 0,-390 0,-384 6,-378 12,-378 12,-378 146.4,-378 146.4,-378 152.4,-378 158.4,-384 158.4,-390 158.4,-390 158.4,-438 158.4,-438 158.4,-444 152.4,-450 146.4,-450"/>
<text xml:space="preserve" text-anchor="middle" x="79.2" y="-418.7" font-family="Inter" font-size="14.00">Émetteur</text>
<text xml:space="preserve" text-anchor="middle" x="79.2" y="-400.7" font-family="Inter" font-size="14.00">(codage)</text>
</g>
<!-- source&#45;&gt;encoder -->
<g id="edge1" class="edge">
<title>source&#45;&gt;encoder</title>
<path fill="none" stroke="black" d="M79.2,-503.8C79.2,-490.71 79.2,-475.65 79.2,-461.69"/>
<polygon fill="black" stroke="black" points="82.7,-461.8 79.2,-451.8 75.7,-461.8 82.7,-461.8"/>
<text xml:space="preserve" text-anchor="middle" x="121.2" y="-472.7" font-family="Inter" font-size="14.00"> &#160;information </text>
</g>
<!-- channel -->
<g id="node3" class="node">
<title>channel</title>
<path fill="#f7f7f8" stroke="black" d="M146.4,-324C146.4,-324 12,-324 12,-324 6,-324 0,-318 0,-312 0,-312 0,-264 0,-264 0,-258 6,-252 12,-252 12,-252 146.4,-252 146.4,-252 152.4,-252 158.4,-258 158.4,-264 158.4,-264 158.4,-312 158.4,-312 158.4,-318 152.4,-324 146.4,-324"/>
<text xml:space="preserve" text-anchor="middle" x="79.2" y="-283.7" font-family="Inter" font-size="14.00">Canal</text>
</g>
<!-- encoder&#45;&gt;channel -->
<g id="edge2" class="edge">
<title>encoder&#45;&gt;channel</title>
<path fill="none" stroke="black" d="M79.2,-377.8C79.2,-364.71 79.2,-349.65 79.2,-335.69"/>
<polygon fill="black" stroke="black" points="82.7,-335.8 79.2,-325.8 75.7,-335.8 82.7,-335.8"/>
<text xml:space="preserve" text-anchor="middle" x="103.58" y="-346.7" font-family="Inter" font-size="14.00"> &#160;signal </text>
</g>
<!-- decoder -->
<g id="node4" class="node">
<title>decoder</title>
<path fill="#f7f7f8" stroke="black" d="M146.4,-198C146.4,-198 12,-198 12,-198 6,-198 0,-192 0,-186 0,-186 0,-138 0,-138 0,-132 6,-126 12,-126 12,-126 146.4,-126 146.4,-126 152.4,-126 158.4,-132 158.4,-138 158.4,-138 158.4,-186 158.4,-186 158.4,-192 152.4,-198 146.4,-198"/>
<text xml:space="preserve" text-anchor="middle" x="79.2" y="-166.7" font-family="Inter" font-size="14.00">Récepteur</text>
<text xml:space="preserve" text-anchor="middle" x="79.2" y="-148.7" font-family="Inter" font-size="14.00">(décodage)</text>
</g>
<!-- channel&#45;&gt;decoder -->
<g id="edge3" class="edge">
<title>channel&#45;&gt;decoder</title>
<path fill="none" stroke="black" d="M79.2,-251.8C79.2,-238.71 79.2,-223.65 79.2,-209.69"/>
<polygon fill="black" stroke="black" points="82.7,-209.8 79.2,-199.8 75.7,-209.8 82.7,-209.8"/>
<text xml:space="preserve" text-anchor="middle" x="103.58" y="-220.7" font-family="Inter" font-size="14.00"> &#160;signal </text>
</g>
<!-- destination -->
<g id="node5" class="node">
<title>destination</title>
<path fill="#f7f7f8" stroke="black" d="M146.4,-72C146.4,-72 12,-72 12,-72 6,-72 0,-66 0,-60 0,-60 0,-12 0,-12 0,-6 6,0 12,0 12,0 146.4,0 146.4,0 152.4,0 158.4,-6 158.4,-12 158.4,-12 158.4,-60 158.4,-60 158.4,-66 152.4,-72 146.4,-72"/>
<text xml:space="preserve" text-anchor="middle" x="79.2" y="-31.7" font-family="Inter" font-size="14.00">Destination</text>
</g>
<!-- decoder&#45;&gt;destination -->
<g id="edge4" class="edge">
<title>decoder&#45;&gt;destination</title>
<path fill="none" stroke="black" d="M79.2,-125.8C79.2,-112.71 79.2,-97.65 79.2,-83.69"/>
<polygon fill="black" stroke="black" points="82.7,-83.8 79.2,-73.8 75.7,-83.8 82.7,-83.8"/>
<text xml:space="preserve" text-anchor="middle" x="121.2" y="-94.7" font-family="Inter" font-size="14.00"> &#160;information </text>
</g>
</g>
</svg>
