<svg aria-roledescription="timeline" role="graphics-document document" viewBox="100 0 1790 943.2000732421875" style="max-width: 1790px; background-color: white;" xmlns:xlink="http://www.w3.org/1999/xlink" xmlns="http://www.w3.org/2000/svg" width="100%" id="my-svg"><style>#my-svg{font-family:"trebuchet ms",verdana,arial,sans-serif;font-size:16px;fill:#333;}@keyframes edge-animation-frame{from{stroke-dashoffset:0;}}@keyframes dash{to{stroke-dashoffset:0;}}#my-svg .edge-animation-slow{stroke-dasharray:9,5!important;stroke-dashoffset:900;animation:dash 50s linear infinite;stroke-linecap:round;}#my-svg .edge-animation-fast{stroke-dasharray:9,5!important;stroke-dashoffset:900;animation:dash 20s linear infinite;stroke-linecap:round;}#my-svg .error-icon{fill:#552222;}#my-svg .error-text{fill:#552222;stroke:#552222;}#my-svg .edge-thickness-normal{stroke-width:1px;}#my-svg .edge-thickness-thick{stroke-width:3.5px;}#my-svg .edge-pattern-solid{stroke-dasharray:0;}#my-svg .edge-thickness-invisible{stroke-width:0;fill:none;}#my-svg .edge-pattern-dashed{stroke-dasharray:3;}#my-svg .edge-pattern-dotted{stroke-dasharray:2;}#my-svg .marker{fill:#333333;stroke:#333333;}#my-svg .marker.cross{stroke:#333333;}#my-svg svg{font-family:"trebuchet ms",verdana,arial,sans-serif;font-size:16px;}#my-svg p{margin:0;}#my-svg .edge{stroke-width:3;}#my-svg .section--1 rect,#my-svg .section--1 path,#my-svg .section--1 circle,#my-svg .section--1 path{fill:hsl(240, 100%, 76.2745098039%);}#my-svg .section--1 text{fill:#ffffff;}#my-svg .node-icon--1{font-size:40px;color:#ffffff;}#my-svg .section-edge--1{stroke:hsl(240, 100%, 76.2745098039%);}#my-svg .edge-depth--1{stroke-width:17;}#my-svg .section--1 line{stroke:hsl(60, 100%, 86.2745098039%);stroke-width:3;}#my-svg .lineWrapper line{stroke:#ffffff;}#my-svg .disabled,#my-svg .disabled circle,#my-svg .disabled text{fill:lightgray;}#my-svg .disabled text{fill:#efefef;}#my-svg .section-0 rect,#my-svg .section-0 path,#my-svg .section-0 circle,#my-svg .section-0 path{fill:hsl(60, 100%, 73.5294117647%);}#my-svg .section-0 text{fill:black;}#my-svg .node-icon-0{font-size:40px;color:black;}#my-svg .section-edge-0{stroke:hsl(60, 100%, 73.5294117647%);}#my-svg .edge-depth-0{stroke-width:14;}#my-svg .section-0 line{stroke:hsl(240, 100%, 83.5294117647%);stroke-width:3;}#my-svg .lineWrapper line{stroke:black;}#my-svg .disabled,#my-svg .disabled circle,#my-svg .disabled text{fill:lightgray;}#my-svg .disabled text{fill:#efefef;}#my-svg .section-1 rect,#my-svg .section-1 path,#my-svg .section-1 circle,#my-svg .section-1 path{fill:hsl(80, 100%, 76.2745098039%);}#my-svg .section-1 text{fill:black;}#my-svg .node-icon-1{font-size:40px;color:black;}#my-svg .section-edge-1{stroke:hsl(80, 100%, 76.2745098039%);}#my-svg .edge-depth-1{stroke-width:11;}#my-svg .section-1 line{stroke:hsl(260, 100%, 86.2745098039%);stroke-width:3;}#my-svg .lineWrapper line{stroke:black;}#my-svg .disabled,#my-svg .disabled circle,#my-svg .disabled text{fill:lightgray;}#my-svg .disabled text{fill:#efefef;}#my-svg .section-2 rect,#my-svg .section-2 path,#my-svg .section-2 circle,#my-svg .section-2 path{fill:hsl(270, 100%, 76.2745098039%);}#my-svg .section-2 text{fill:#ffffff;}#my-svg .node-icon-2{font-size:40px;color:#ffffff;}#my-svg .section-edge-2{stroke:hsl(270, 100%, 76.2745098039%);}#my-svg .edge-depth-2{stroke-width:8;}#my-svg .section-2 line{stroke:hsl(90, 100%, 86.2745098039%);stroke-width:3;}#my-svg .lineWrapper line{stroke:#ffffff;}#my-svg .disabled,#my-svg .disabled circle,#my-svg .disabled text{fill:lightgray;}#my-svg .disabled text{fill:#efefef;}#my-svg .section-3 rect,#my-svg .section-3 path,#my-svg .section-3 circle,#my-svg .section-3 path{fill:hsl(300, 100%, 76.2745098039%);}#my-svg .section-3 text{fill:black;}#my-svg .node-icon-3{font-size:40px;color:black;}#my-svg .section-edge-3{stroke:hsl(300, 100%, 76.2745098039%);}#my-svg .edge-depth-3{stroke-width:5;}#my-svg .section-3 line{stroke:hsl(120, 100%, 86.2745098039%);stroke-width:3;}#my-svg .lineWrapper line{stroke:black;}#my-svg .disabled,#my-svg .disabled circle,#my-svg .disabled text{fill:lightgray;}#my-svg .disabled text{fill:#efefef;}#my-svg .section-4 rect,#my-svg .section-4 path,#my-svg .section-4 circle,#my-svg .section-4 path{fill:hsl(330, 100%, 76.2745098039%);}#my-svg .section-4 text{fill:black;}#my-svg .node-icon-4{font-size:40px;color:black;}#my-svg .section-edge-4{stroke:hsl(330, 100%, 76.2745098039%);}#my-svg .edge-depth-4{stroke-width:2;}#my-svg .section-4 line{stroke:hsl(150, 100%, 86.2745098039%);stroke-width:3;}#my-svg .lineWrapper line{stroke:black;}#my-svg .disabled,#my-svg .disabled circle,#my-svg .disabled text{fill:lightgray;}#my-svg .disabled text{fill:#efefef;}#my-svg .section-5 rect,#my-svg .section-5 path,#my-svg .section-5 circle,#my-svg .section-5 path{fill:hsl(0, 100%, 76.2745098039%);}#my-svg .section-5 text{fill:black;}#my-svg .node-icon-5{font-size:40px;color:black;}#my-svg .section-edge-5{stroke:hsl(0, 100%, 76.2745098039%);}#my-svg .edge-depth-5{stroke-width:-1;}#my-svg .section-5 line{stroke:hsl(180, 100%, 86.2745098039%);stroke-width:3;}#my-svg .lineWrapper line{stroke:black;}#my-svg .disabled,#my-svg .disabled circle,#my-svg .disabled text{fill:lightgray;}#my-svg .disabled text{fill:#efefef;}#my-svg .section-6 rect,#my-svg .section-6 path,#my-svg .section-6 circle,#my-svg .section-6 path{fill:hsl(30, 100%, 76.2745098039%);}#my-svg .section-6 text{fill:black;}#my-svg .node-icon-6{font-size:40px;color:black;}#my-svg .section-edge-6{stroke:hsl(30, 100%, 76.2745098039%);}#my-svg .edge-depth-6{stroke-width:-4;}#my-svg .section-6 line{stroke:hsl(210, 100%, 86.2745098039%);stroke-width:3;}#my-svg .lineWrapper line{stroke:black;}#my-svg .disabled,#my-svg .disabled circle,#my-svg .disabled text{fill:lightgray;}#my-svg .disabled text{fill:#efefef;}#my-svg .section-7 rect,#my-svg .section-7 path,#my-svg .section-7 circle,#my-svg .section-7 path{fill:hsl(90, 100%, 76.2745098039%);}#my-svg .section-7 text{fill:black;}#my-svg .node-icon-7{font-size:40px;color:black;}#my-svg .section-edge-7{stroke:hsl(90, 100%, 76.2745098039%);}#my-svg .edge-depth-7{stroke-width:-7;}#my-svg .section-7 line{stroke:hsl(270, 100%, 86.2745098039%);stroke-width:3;}#my-svg .lineWrapper line{stroke:black;}#my-svg .disabled,#my-svg .disabled circle,#my-svg .disabled text{fill:lightgray;}#my-svg .disabled text{fill:#efefef;}#my-svg .section-8 rect,#my-svg .section-8 path,#my-svg .section-8 circle,#my-svg .section-8 path{fill:hsl(150, 100%, 76.2745098039%);}#my-svg .section-8 text{fill:black;}#my-svg .node-icon-8{font-size:40px;color:black;}#my-svg .section-edge-8{stroke:hsl(150, 100%, 76.2745098039%);}#my-svg .edge-depth-8{stroke-width:-10;}#my-svg .section-8 line{stroke:hsl(330, 100%, 86.2745098039%);stroke-width:3;}#my-svg .lineWrapper line{stroke:black;}#my-svg .disabled,#my-svg .disabled circle,#my-svg .disabled text{fill:lightgray;}#my-svg .disabled text{fill:#efefef;}#my-svg .section-9 rect,#my-svg .section-9 path,#my-svg .section-9 circle,#my-svg .section-9 path{fill:hsl(180, 100%, 76.2745098039%);}#my-svg .section-9 text{fill:black;}#my-svg .node-icon-9{font-size:40px;color:black;}#my-svg .section-edge-9{stroke:hsl(180, 100%, 76.2745098039%);}#my-svg .edge-depth-9{stroke-width:-13;}#my-svg .section-9 line{stroke:hsl(0, 100%, 86.2745098039%);stroke-width:3;}#my-svg .lineWrapper line{stroke:black;}#my-svg .disabled,#my-svg .disabled circle,#my-svg .disabled text{fill:lightgray;}#my-svg .disabled text{fill:#efefef;}#my-svg .section-10 rect,#my-svg .section-10 path,#my-svg .section-10 circle,#my-svg .section-10 path{fill:hsl(210, 100%, 76.2745098039%);}#my-svg .section-10 text{fill:black;}#my-svg .node-icon-10{font-size:40px;color:black;}#my-svg .section-edge-10{stroke:hsl(210, 100%, 76.2745098039%);}#my-svg .edge-depth-10{stroke-width:-16;}#my-svg .section-10 line{stroke:hsl(30, 100%, 86.2745098039%);stroke-width:3;}#my-svg .lineWrapper line{stroke:black;}#my-svg .disabled,#my-svg .disabled circle,#my-svg .disabled text{fill:lightgray;}#my-svg .disabled text{fill:#efefef;}#my-svg .section-root rect,#my-svg .section-root path,#my-svg .section-root circle{fill:hsl(240, 100%, 46.2745098039%);}#my-svg .section-root text{fill:#ffffff;}#my-svg .icon-container{height:100%;display:flex;justify-content:center;align-items:center;}#my-svg .edge{fill:none;}#my-svg .eventWrapper{filter:brightness(120%);}#my-svg :root{--mermaid-font-family:"trebuchet ms",verdana,arial,sans-serif;}</style><g/><g/><defs><marker orient="auto" markerHeight="4" markerWidth="6" refY="2" refX="5" id="arrowhead"><path d="M 0,0 V 4 L6,2 Z"/></marker></defs><g transform="translate(200, 50)"><g class="timeline-node section--1"><g><path d="M0 115.59999542236328 v-110.59999542236328 q0,-5 5,-5 h180 q5,0 5,5 v115.59999542236328 H0 Z" class="node-bkg node-undefined" id="node-undefined"/><line y2="120.59999542236328" x2="190" y1="120.59999542236328" x1="0" class="node-line--1"/></g><g transform="translate(95, 10)"><text text-anchor="middle" dominant-baseline="middle" alignment-baseline="middle" dy="1em"><tspan dy="1em" x="0">1950–1969</tspan><tspan dy="1.1em" x="0">Premiers   pas</tspan></text></g></g></g><g transform="translate(200, 220.5999954223633)" class="taskWrapper"><g class="timeline-node section--1"><g><path d="M0 62.8 v-57.8 q0,-5 5,-5 h180 q5,0 5,5 v62.8 H0 Z" class="node-bkg node-undefined" id="node-undefined"/><line y2="67.8" x2="190" y1="67.8" x1="0" class="node-line--1"/></g><g transform="translate(95, 10)"><text text-anchor="middle" dominant-baseline="middle" alignment-baseline="middle" dy="1em"><tspan dy="1em" x="0">Test   de   Turing   (1950)</tspan></text></g></g></g><g class="lineWrapper"><line stroke-dasharray="5,5" marker-end="url(#arrowhead)" stroke="black" stroke-width="2" y2="877.9999908447267" x2="295" y1="288.3999954223633" x1="295"/></g><g transform="translate(200, 420.5999954223633)" class="eventWrapper"><g class="timeline-node section--1"><g><path d="M0 60.39999847412109 v-55.39999847412109 q0,-5 5,-5 h180 q5,0 5,5 v60.39999847412109 H0 Z" class="node-bkg node-undefined" id="node-undefined"/><line y2="65.39999847412109" x2="190" y1="65.39999847412109" x1="0" class="node-line--1"/></g><g transform="translate(95, 10)"><text text-anchor="middle" dominant-baseline="middle" alignment-baseline="middle" dy="1em"><tspan dy="1em" x="0">Conférence   de</tspan><tspan dy="1.1em" x="0">Dartmouth   (1956)</tspan></text></g></g></g><g transform="translate(200, 495.9999938964844)" class="eventWrapper"><g class="timeline-node section--1"><g><path d="M0 60.39999847412109 v-55.39999847412109 q0,-5 5,-5 h180 q5,0 5,5 v60.39999847412109 H0 Z" class="node-bkg node-undefined" id="node-undefined"/><line y2="65.39999847412109" x2="190" y1="65.39999847412109" x1="0" class="node-line--1"/></g><g transform="translate(95, 10)"><text text-anchor="middle" dominant-baseline="middle" alignment-baseline="middle" dy="1em"><tspan dy="1em" x="0">Perceptron   —</tspan><tspan dy="1.1em" x="0">Rosenblatt   (1957)</tspan></text></g></g></g><g transform="translate(200, 571.3999923706054)" class="eventWrapper"><g class="timeline-node section--1"><g><path d="M0 60.39999847412109 v-55.39999847412109 q0,-5 5,-5 h180 q5,0 5,5 v60.39999847412109 H0 Z" class="node-bkg node-undefined" id="node-undefined"/><line y2="65.39999847412109" x2="190" y1="65.39999847412109" x1="0" class="node-line--1"/></g><g transform="translate(95, 10)"><text text-anchor="middle" dominant-baseline="middle" alignment-baseline="middle" dy="1em"><tspan dy="1em" x="0">ELIZA   —   Premier</tspan><tspan dy="1.1em" x="0">chatbot   (1966)</tspan></text></g></g></g><g transform="translate(400, 50)"><g class="timeline-node section-0"><g><path d="M0 115.59999542236328 v-110.59999542236328 q0,-5 5,-5 h180 q5,0 5,5 v115.59999542236328 H0 Z" class="node-bkg node-undefined" id="node-undefined"/><line y2="120.59999542236328" x2="190" y1="120.59999542236328" x1="0" class="node-line-0"/></g><g transform="translate(95, 10)"><text text-anchor="middle" dominant-baseline="middle" alignment-baseline="middle" dy="1em"><tspan dy="1em" x="0">1970s</tspan><tspan dy="1.1em" x="0">Premier   hiver</tspan></text></g></g></g><g transform="translate(400, 220.5999954223633)" class="taskWrapper"><g class="timeline-node section-0"><g><path d="M0 62.8 v-57.8 q0,-5 5,-5 h180 q5,0 5,5 v62.8 H0 Z" class="node-bkg node-undefined" id="node-undefined"/><line y2="67.8" x2="190" y1="67.8" x1="0" class="node-line-0"/></g><g transform="translate(95, 10)"><text text-anchor="middle" dominant-baseline="middle" alignment-baseline="middle" dy="1em"><tspan dy="1em" x="0">Rapport   Lighthill</tspan><tspan dy="1.1em" x="0">(1973)</tspan></text></g></g></g><g class="lineWrapper"><line stroke-dasharray="5,5" marker-end="url(#arrowhead)" stroke="black" stroke-width="2" y2="877.9999908447267" x2="495" y1="288.3999954223633" x1="495"/></g><g transform="translate(400, 420.5999954223633)" class="eventWrapper"><g class="timeline-node section-0"><g><path d="M0 77.99999694824218 v-72.99999694824218 q0,-5 5,-5 h180 q5,0 5,5 v77.99999694824218 H0 Z" class="node-bkg node-undefined" id="node-undefined"/><line y2="82.99999694824218" x2="190" y1="82.99999694824218" x1="0" class="node-line-0"/></g><g transform="translate(95, 10)"><text text-anchor="middle" dominant-baseline="middle" alignment-baseline="middle" dy="1em"><tspan dy="1em" x="0">Réduction   massive</tspan><tspan dy="1.1em" x="0">des   financements</tspan><tspan dy="1.1em" x="0">(1974)</tspan></text></g></g></g><g transform="translate(600, 50)"><g class="timeline-node section-1"><g><path d="M0 115.59999542236328 v-110.59999542236328 q0,-5 5,-5 h180 q5,0 5,5 v115.59999542236328 H0 Z" class="node-bkg node-undefined" id="node-undefined"/><line y2="120.59999542236328" x2="190" y1="120.59999542236328" x1="0" class="node-line-1"/></g><g transform="translate(95, 10)"><text text-anchor="middle" dominant-baseline="middle" alignment-baseline="middle" dy="1em"><tspan dy="1em" x="0">1980s</tspan><tspan dy="1.1em" x="0">Systèmes   experts   et</tspan><tspan dy="1.1em" x="0">renaissance</tspan><tspan dy="1.1em" x="0">neuronale</tspan></text></g></g></g><g transform="translate(600, 220.5999954223633)" class="taskWrapper"><g class="timeline-node section-1"><g><path d="M0 62.8 v-57.8 q0,-5 5,-5 h180 q5,0 5,5 v62.8 H0 Z" class="node-bkg node-undefined" id="node-undefined"/><line y2="67.8" x2="190" y1="67.8" x1="0" class="node-line-1"/></g><g transform="translate(95, 10)"><text text-anchor="middle" dominant-baseline="middle" alignment-baseline="middle" dy="1em"><tspan dy="1em" x="0">Systèmes   experts   en</tspan><tspan dy="1.1em" x="0">entreprise   (1980)</tspan></text></g></g></g><g class="lineWrapper"><line stroke-dasharray="5,5" marker-end="url(#arrowhead)" stroke="black" stroke-width="2" y2="877.9999908447267" x2="695" y1="288.3999954223633" x1="695"/></g><g transform="translate(600, 420.5999954223633)" class="eventWrapper"><g class="timeline-node section-1"><g><path d="M0 95.59999542236328 v-90.59999542236328 q0,-5 5,-5 h180 q5,0 5,5 v95.59999542236328 H0 Z" class="node-bkg node-undefined" id="node-undefined"/><line y2="100.59999542236328" x2="190" y1="100.59999542236328" x1="0" class="node-line-1"/></g><g transform="translate(95, 10)"><text text-anchor="middle" dominant-baseline="middle" alignment-baseline="middle" dy="1em"><tspan dy="1em" x="0">Rétropropagation   du</tspan><tspan dy="1.1em" x="0">gradient   —</tspan><tspan dy="1.1em" x="0">Rumelhart,   Hinton,</tspan><tspan dy="1.1em" x="0">Williams   (1986)</tspan></text></g></g></g><g transform="translate(600, 531.1999908447266)" class="eventWrapper"><g class="timeline-node section-1"><g><path d="M0 77.99999694824218 v-72.99999694824218 q0,-5 5,-5 h180 q5,0 5,5 v77.99999694824218 H0 Z" class="node-bkg node-undefined" id="node-undefined"/><line y2="82.99999694824218" x2="190" y1="82.99999694824218" x1="0" class="node-line-1"/></g><g transform="translate(95, 10)"><text text-anchor="middle" dominant-baseline="middle" alignment-baseline="middle" dy="1em"><tspan dy="1em" x="0">Déclin   des   machines</tspan><tspan dy="1.1em" x="0">Lisp   —   début   du   2e</tspan><tspan dy="1.1em" x="0">hiver   (1987)</tspan></text></g></g></g><g transform="translate(800, 50)"><g class="timeline-node section-2"><g><path d="M0 115.59999542236328 v-110.59999542236328 q0,-5 5,-5 h180 q5,0 5,5 v115.59999542236328 H0 Z" class="node-bkg node-undefined" id="node-undefined"/><line y2="120.59999542236328" x2="190" y1="120.59999542236328" x1="0" class="node-line-2"/></g><g transform="translate(95, 10)"><text text-anchor="middle" dominant-baseline="middle" alignment-baseline="middle" dy="1em"><tspan dy="1em" x="0">1990s</tspan><tspan dy="1.1em" x="0">Difficultés   mais</tspan><tspan dy="1.1em" x="0">percées</tspan></text></g></g></g><g transform="translate(800, 220.5999954223633)" class="taskWrapper"><g class="timeline-node section-2"><g><path d="M0 62.8 v-57.8 q0,-5 5,-5 h180 q5,0 5,5 v62.8 H0 Z" class="node-bkg node-undefined" id="node-undefined"/><line y2="67.8" x2="190" y1="67.8" x1="0" class="node-line-2"/></g><g transform="translate(95, 10)"><text text-anchor="middle" dominant-baseline="middle" alignment-baseline="middle" dy="1em"><tspan dy="1em" x="0">Deep   Blue   bat</tspan><tspan dy="1.1em" x="0">Kasparov   (1997)</tspan></text></g></g></g><g class="lineWrapper"><line stroke-dasharray="5,5" marker-end="url(#arrowhead)" stroke="black" stroke-width="2" y2="877.9999908447267" x2="895" y1="288.3999954223633" x1="895"/></g><g transform="translate(800, 420.5999954223633)" class="eventWrapper"><g class="timeline-node section-2"><g><path d="M0 77.99999694824218 v-72.99999694824218 q0,-5 5,-5 h180 q5,0 5,5 v77.99999694824218 H0 Z" class="node-bkg node-undefined" id="node-undefined"/><line y2="82.99999694824218" x2="190" y1="82.99999694824218" x1="0" class="node-line-2"/></g><g transform="translate(95, 10)"><text text-anchor="middle" dominant-baseline="middle" alignment-baseline="middle" dy="1em"><tspan dy="1em" x="0">LSTM   —   Hochreiter</tspan><tspan dy="1.1em" x="0">&amp;   Schmidhuber</tspan><tspan dy="1.1em" x="0">(1997)</tspan></text></g></g></g><g transform="translate(800, 513.5999923706055)" class="eventWrapper"><g class="timeline-node section-2"><g><path d="M0 60.39999847412109 v-55.39999847412109 q0,-5 5,-5 h180 q5,0 5,5 v60.39999847412109 H0 Z" class="node-bkg node-undefined" id="node-undefined"/><line y2="65.39999847412109" x2="190" y1="65.39999847412109" x1="0" class="node-line-2"/></g><g transform="translate(95, 10)"><text text-anchor="middle" dominant-baseline="middle" alignment-baseline="middle" dy="1em"><tspan dy="1em" x="0">LeNet   —   CNN   de</tspan><tspan dy="1.1em" x="0">LeCun   (1998)</tspan></text></g></g></g><g transform="translate(1000, 50)"><g class="timeline-node section-3"><g><path d="M0 115.59999542236328 v-110.59999542236328 q0,-5 5,-5 h180 q5,0 5,5 v115.59999542236328 H0 Z" class="node-bkg node-undefined" id="node-undefined"/><line y2="120.59999542236328" x2="190" y1="120.59999542236328" x1="0" class="node-line-3"/></g><g transform="translate(95, 10)"><text text-anchor="middle" dominant-baseline="middle" alignment-baseline="middle" dy="1em"><tspan dy="1em" x="0">2000s</tspan><tspan dy="1.1em" x="0">Fondations   du   deep</tspan><tspan dy="1.1em" x="0">learning</tspan></text></g></g></g><g transform="translate(1000, 220.5999954223633)" class="taskWrapper"><g class="timeline-node section-3"><g><path d="M0 77.99999694824218 v-72.99999694824218 q0,-5 5,-5 h180 q5,0 5,5 v77.99999694824218 H0 Z" class="node-bkg node-undefined" id="node-undefined"/><line y2="82.99999694824218" x2="190" y1="82.99999694824218" x1="0" class="node-line-3"/></g><g transform="translate(95, 10)"><text text-anchor="middle" dominant-baseline="middle" alignment-baseline="middle" dy="1em"><tspan dy="1em" x="0">"Deep   Learning"</tspan><tspan dy="1.1em" x="0">popularisé   par</tspan><tspan dy="1.1em" x="0">Hinton   (2006)</tspan></text></g></g></g><g class="lineWrapper"><line stroke-dasharray="5,5" marker-end="url(#arrowhead)" stroke="black" stroke-width="2" y2="893.1999877929688" x2="1095" y1="303.5999923706055" x1="1095"/></g><g transform="translate(1000, 420.5999954223633)" class="eventWrapper"><g class="timeline-node section-3"><g><path d="M0 60.39999847412109 v-55.39999847412109 q0,-5 5,-5 h180 q5,0 5,5 v60.39999847412109 H0 Z" class="node-bkg node-undefined" id="node-undefined"/><line y2="65.39999847412109" x2="190" y1="65.39999847412109" x1="0" class="node-line-3"/></g><g transform="translate(95, 10)"><text text-anchor="middle" dominant-baseline="middle" alignment-baseline="middle" dy="1em"><tspan dy="1em" x="0">GPU   +   Big   Data   —</tspan><tspan dy="1.1em" x="0">accélération   (2009)</tspan></text></g></g></g><g transform="translate(1200, 50)"><g class="timeline-node section-4"><g><path d="M0 115.59999542236328 v-110.59999542236328 q0,-5 5,-5 h180 q5,0 5,5 v115.59999542236328 H0 Z" class="node-bkg node-undefined" id="node-undefined"/><line y2="120.59999542236328" x2="190" y1="120.59999542236328" x1="0" class="node-line-4"/></g><g transform="translate(95, 10)"><text text-anchor="middle" dominant-baseline="middle" alignment-baseline="middle" dy="1em"><tspan dy="1em" x="0">2010s</tspan><tspan dy="1.1em" x="0">Révolution   de   l’IA</tspan></text></g></g></g><g transform="translate(1200, 220.5999954223633)" class="taskWrapper"><g class="timeline-node section-4"><g><path d="M0 62.8 v-57.8 q0,-5 5,-5 h180 q5,0 5,5 v62.8 H0 Z" class="node-bkg node-undefined" id="node-undefined"/><line y2="67.8" x2="190" y1="67.8" x1="0" class="node-line-4"/></g><g transform="translate(95, 10)"><text text-anchor="middle" dominant-baseline="middle" alignment-baseline="middle" dy="1em"><tspan dy="1em" x="0">AlexNet   gagne</tspan><tspan dy="1.1em" x="0">ImageNet   (2012)</tspan></text></g></g></g><g class="lineWrapper"><line stroke-dasharray="5,5" marker-end="url(#arrowhead)" stroke="black" stroke-width="2" y2="877.9999908447267" x2="1295" y1="288.3999954223633" x1="1295"/></g><g transform="translate(1200, 420.5999954223633)" class="eventWrapper"><g class="timeline-node section-4"><g><path d="M0 60.39999847412109 v-55.39999847412109 q0,-5 5,-5 h180 q5,0 5,5 v60.39999847412109 H0 Z" class="node-bkg node-undefined" id="node-undefined"/><line y2="65.39999847412109" x2="190" y1="65.39999847412109" x1="0" class="node-line-4"/></g><g transform="translate(95, 10)"><text text-anchor="middle" dominant-baseline="middle" alignment-baseline="middle" dy="1em"><tspan dy="1em" x="0">GANs   —   Goodfellow</tspan><tspan dy="1.1em" x="0">(2014)</tspan></text></g></g></g><g transform="translate(1200, 495.9999938964844)" class="eventWrapper"><g class="timeline-node section-4"><g><path d="M0 77.99999694824218 v-72.99999694824218 q0,-5 5,-5 h180 q5,0 5,5 v77.99999694824218 H0 Z" class="node-bkg node-undefined" id="node-undefined"/><line y2="82.99999694824218" x2="190" y1="82.99999694824218" x1="0" class="node-line-4"/></g><g transform="translate(95, 10)"><text text-anchor="middle" dominant-baseline="middle" alignment-baseline="middle" dy="1em"><tspan dy="1em" x="0">ResNet   —   réseaux</tspan><tspan dy="1.1em" x="0">convolutifs   profonds</tspan><tspan dy="1.1em" x="0">(2015)</tspan></text></g></g></g><g transform="translate(1200, 588.9999908447265)" class="eventWrapper"><g class="timeline-node section-4"><g><path d="M0 60.39999847412109 v-55.39999847412109 q0,-5 5,-5 h180 q5,0 5,5 v60.39999847412109 H0 Z" class="node-bkg node-undefined" id="node-undefined"/><line y2="65.39999847412109" x2="190" y1="65.39999847412109" x1="0" class="node-line-4"/></g><g transform="translate(95, 10)"><text text-anchor="middle" dominant-baseline="middle" alignment-baseline="middle" dy="1em"><tspan dy="1em" x="0">AlphaGo   bat   Lee</tspan><tspan dy="1.1em" x="0">Sedol   (2016)</tspan></text></g></g></g><g transform="translate(1200, 664.3999893188476)" class="eventWrapper"><g class="timeline-node section-4"><g><path d="M0 77.99999694824218 v-72.99999694824218 q0,-5 5,-5 h180 q5,0 5,5 v77.99999694824218 H0 Z" class="node-bkg node-undefined" id="node-undefined"/><line y2="82.99999694824218" x2="190" y1="82.99999694824218" x1="0" class="node-line-4"/></g><g transform="translate(95, 10)"><text text-anchor="middle" dominant-baseline="middle" alignment-baseline="middle" dy="1em"><tspan dy="1em" x="0">Transformers   —</tspan><tspan dy="1.1em" x="0">"Attention   is   All   You</tspan><tspan dy="1.1em" x="0">Need"   (2017)</tspan></text></g></g></g><g transform="translate(1400, 50)"><g class="timeline-node section-5"><g><path d="M0 115.59999542236328 v-110.59999542236328 q0,-5 5,-5 h180 q5,0 5,5 v115.59999542236328 H0 Z" class="node-bkg node-undefined" id="node-undefined"/><line y2="120.59999542236328" x2="190" y1="120.59999542236328" x1="0" class="node-line-5"/></g><g transform="translate(95, 10)"><text text-anchor="middle" dominant-baseline="middle" alignment-baseline="middle" dy="1em"><tspan dy="1em" x="0">2020s</tspan><tspan dy="1.1em" x="0">Explosion   de   l’IA</tspan><tspan dy="1.1em" x="0">générative</tspan></text></g></g></g><g transform="translate(1400, 220.5999954223633)" class="taskWrapper"><g class="timeline-node section-5"><g><path d="M0 62.8 v-57.8 q0,-5 5,-5 h180 q5,0 5,5 v62.8 H0 Z" class="node-bkg node-undefined" id="node-undefined"/><line y2="67.8" x2="190" y1="67.8" x1="0" class="node-line-5"/></g><g transform="translate(95, 10)"><text text-anchor="middle" dominant-baseline="middle" alignment-baseline="middle" dy="1em"><tspan dy="1em" x="0">GPT-3   —   OpenAI</tspan><tspan dy="1.1em" x="0">(2020)</tspan></text></g></g></g><g class="lineWrapper"><line stroke-dasharray="5,5" marker-end="url(#arrowhead)" stroke="black" stroke-width="2" y2="877.9999908447267" x2="1495" y1="288.3999954223633" x1="1495"/></g><g transform="translate(1400, 420.5999954223633)" class="eventWrapper"><g class="timeline-node section-5"><g><path d="M0 60.39999847412109 v-55.39999847412109 q0,-5 5,-5 h180 q5,0 5,5 v60.39999847412109 H0 Z" class="node-bkg node-undefined" id="node-undefined"/><line y2="65.39999847412109" x2="190" y1="65.39999847412109" x1="0" class="node-line-5"/></g><g transform="translate(95, 10)"><text text-anchor="middle" dominant-baseline="middle" alignment-baseline="middle" dy="1em"><tspan dy="1em" x="0">Modèles   de   diffusion</tspan><tspan dy="1.1em" x="0">—   DDPM   (2021)</tspan></text></g></g></g><g transform="translate(1400, 495.9999938964844)" class="eventWrapper"><g class="timeline-node section-5"><g><path d="M0 60.39999847412109 v-55.39999847412109 q0,-5 5,-5 h180 q5,0 5,5 v60.39999847412109 H0 Z" class="node-bkg node-undefined" id="node-undefined"/><line y2="65.39999847412109" x2="190" y1="65.39999847412109" x1="0" class="node-line-5"/></g><g transform="translate(95, 10)"><text text-anchor="middle" dominant-baseline="middle" alignment-baseline="middle" dy="1em"><tspan dy="1em" x="0">ChatGPT   grand</tspan><tspan dy="1.1em" x="0">public   (2022)</tspan></text></g></g></g><g transform="translate(1400, 571.3999923706054)" class="eventWrapper"><g class="timeline-node section-5"><g><path d="M0 60.39999847412109 v-55.39999847412109 q0,-5 5,-5 h180 q5,0 5,5 v60.39999847412109 H0 Z" class="node-bkg node-undefined" id="node-undefined"/><line y2="65.39999847412109" x2="190" y1="65.39999847412109" x1="0" class="node-line-5"/></g><g transform="translate(95, 10)"><text text-anchor="middle" dominant-baseline="middle" alignment-baseline="middle" dy="1em"><tspan dy="1em" x="0">Stable   Diffusion</tspan><tspan dy="1.1em" x="0">(2022)</tspan></text></g></g></g><g transform="translate(1400, 646.7999908447265)" class="eventWrapper"><g class="timeline-node section-5"><g><path d="M0 45 v-40 q0,-5 5,-5 h180 q5,0 5,5 v45 H0 Z" class="node-bkg node-undefined" id="node-undefined"/><line y2="50" x2="190" y1="50" x1="0" class="node-line-5"/></g><g transform="translate(95, 10)"><text text-anchor="middle" dominant-baseline="middle" alignment-baseline="middle" dy="1em"><tspan dy="1em" x="0">DALL-E   2   (2022)</tspan></text></g></g></g><g transform="translate(1400, 706.7999908447265)" class="eventWrapper"><g class="timeline-node section-5"><g><path d="M0 45 v-40 q0,-5 5,-5 h180 q5,0 5,5 v45 H0 Z" class="node-bkg node-undefined" id="node-undefined"/><line y2="50" x2="190" y1="50" x1="0" class="node-line-5"/></g><g transform="translate(95, 10)"><text text-anchor="middle" dominant-baseline="middle" alignment-baseline="middle" dy="1em"><tspan dy="1em" x="0">MidJourney   (2022)</tspan></text></g></g></g><g transform="translate(1400, 766.7999908447265)" class="eventWrapper"><g class="timeline-node section-5"><g><path d="M0 45 v-40 q0,-5 5,-5 h180 q5,0 5,5 v45 H0 Z" class="node-bkg node-undefined" id="node-undefined"/><line y2="50" x2="190" y1="50" x1="0" class="node-line-5"/></g><g transform="translate(95, 10)"><text text-anchor="middle" dominant-baseline="middle" alignment-baseline="middle" dy="1em"><tspan dy="1em" x="0">GPT-4   (2023)</tspan></text></g></g></g><g class="lineWrapper"><line marker-end="url(#arrowhead)" stroke="black" stroke-width="4" y2="338.3999954223633" x2="1840" y1="338.3999954223633" x1="150"/></g></svg>