<?xml version="1.0" encoding="UTF-8" standalone="no"?>
<!DOCTYPE svg PUBLIC "-//W3C//DTD SVG 1.1//EN"
 "http://www.w3.org/Graphics/SVG/1.1/DTD/svg11.dtd">
<!-- Generated by graphviz version 13.1.2 (20250808.2320)
 -->
<!-- Title: simple_model Pages: 1 -->
<svg width="240pt" height="73pt"
 viewBox="0.00 0.00 240.00 73.00" xmlns="http://www.w3.org/2000/svg" xmlns:xlink="http://www.w3.org/1999/xlink">
<g id="graph0" class="graph" transform="scale(1 1) rotate(0) translate(4 68.8)">
<title>simple_model</title>
<!-- x -->
<!-- modele -->
<g id="node3" class="node">
<title>modele</title>
<path fill="#ffffff" stroke="black" d="M183.12,-64.8C183.12,-64.8 48.72,-64.8 48.72,-64.8 42.72,-64.8 36.72,-58.8 36.72,-52.8 36.72,-52.8 36.72,-12 36.72,-12 36.72,-6 42.72,0 48.72,0 48.72,0 183.12,0 183.12,0 189.12,0 195.12,-6 195.12,-12 195.12,-12 195.12,-52.8 195.12,-52.8 195.12,-58.8 189.12,-64.8 183.12,-64.8"/>
<text xml:space="preserve" text-anchor="middle" x="115.92" y="-28.1" font-family="Inter" font-size="14.00">modèle</text>
</g>
<!-- x&#45;&gt;modele -->
<g id="edge1" class="edge">
<title>x&#45;&gt;modele</title>
<path fill="none" stroke="black" d="M1.05,-32.4C2.89,-32.4 12.31,-32.4 25,-32.4"/>
<polygon fill="black" stroke="black" points="24.83,-35.9 34.83,-32.4 24.83,-28.9 24.83,-35.9"/>
</g>
<!-- y -->
<!-- modele&#45;&gt;y -->
<g id="edge2" class="edge">
<title>modele&#45;&gt;y</title>
<path fill="none" stroke="black" d="M195.61,-32.4C204.72,-32.4 212.96,-32.4 219.21,-32.4"/>
<polygon fill="black" stroke="black" points="219.2,-35.9 229.2,-32.4 219.2,-28.9 219.2,-35.9"/>
</g>
</g>
</svg>
